<svg width="1369" height="645" viewBox="0 0 1369 645" fill="none" xmlns="http://www.w3.org/2000/svg">
<g opacity="0.8">
<path opacity="0.25" d="M67.9919 604.778C80.0672 603.155 88.7139 591.652 87.3047 579.086C85.8955 566.52 74.9641 557.649 62.8888 559.272C50.8134 560.896 42.1667 572.398 43.5759 584.965C44.9851 597.531 55.9165 606.402 67.9919 604.778Z" fill="#CFDAE6"/>
<path opacity="0.6" d="M6.27702 575.354C9.16927 574.965 11.2403 572.21 10.9028 569.2C10.5652 566.19 7.94699 564.065 5.05474 564.454C2.16249 564.843 0.0914799 567.598 0.429003 570.608C0.766526 573.618 3.38477 575.743 6.27702 575.354Z" fill="#CFDAE6"/>
<path opacity="0.45" fill-rule="evenodd" clip-rule="evenodd" d="M46.8367 643.994C52.6212 643.216 56.7633 637.706 56.0882 631.686C55.4132 625.666 50.1767 621.417 44.3922 622.195C38.6077 622.972 34.4657 628.483 35.1407 634.502C35.8158 640.522 41.0522 644.771 46.8367 643.994Z" fill="#CFDAE6"/>
<path opacity="0.8" d="M66.1319 582.673L119.108 558.13" stroke="#CFDAE6" stroke-width="1.73913" stroke-linecap="round" stroke-linejoin="round"/>
<path opacity="0.7" d="M43.3117 578.352L7.47302 570.58" stroke="#E0B4B7" stroke-width="0.702679" stroke-linecap="round" stroke-linejoin="round" stroke-dasharray="1.41 2.11"/>
<path opacity="0.8" d="M66.0978 583.087L49.9103 623.339" stroke="#BACAD9" stroke-width="0.702679" stroke-linecap="round" stroke-linejoin="round" stroke-dasharray="1.41 2.11"/>
<g opacity="0.8">
<path opacity="0.45" d="M122.374 562.599C127.074 564.716 132.467 562.471 134.419 557.586C136.372 552.7 134.144 547.024 129.444 544.907C124.744 542.79 119.351 545.034 117.399 549.92C115.446 554.805 117.674 560.482 122.374 562.599Z" fill="#CFDAE6"/>
<path opacity="0.8" fill-rule="evenodd" clip-rule="evenodd" d="M117.39 549.973C115.442 554.842 117.664 560.501 122.352 562.611C127.04 564.721 132.419 562.484 134.367 557.614L117.39 549.973Z" fill="#CFDAE6"/>
</g>
</g>
<path opacity="0.25" d="M131.74 96.9612C147.919 95.406 159.943 80.4374 158.596 63.528C157.25 46.6186 143.043 34.1716 126.864 35.7269C110.686 37.2821 98.6617 52.2506 100.008 69.16C101.354 86.0694 115.561 98.5164 131.74 96.9612Z" fill="#CFDAE6"/>
<path opacity="0.3" d="M131.108 89.0234C143.092 87.8714 151.999 76.7836 151.002 64.2581C150.004 51.7326 139.481 42.5126 127.496 43.6646C115.512 44.8167 106.605 55.9045 107.603 68.4299C108.6 80.9554 119.124 90.1754 131.108 89.0234Z" fill="#CFDAE6"/>
<path opacity="0.4" d="M291.054 192.465C304.237 191.198 314.034 179.001 312.937 165.223C311.84 151.445 300.264 141.303 287.081 142.57C273.899 143.837 264.102 156.034 265.199 169.812C266.296 183.59 277.872 193.732 291.054 192.465Z" stroke="#CFDAE6"/>
<path opacity="0.5" d="M130.205 77.6837C136.197 77.1077 140.651 71.5638 140.152 65.3011C139.653 59.0383 134.391 54.4283 128.399 55.0043C122.407 55.5804 117.954 61.1243 118.453 67.387C118.951 73.6497 124.213 78.2597 130.205 77.6837Z" fill="#BACAD9"/>
<path fill-rule="evenodd" clip-rule="evenodd" d="M130.248 77.6816L128.436 54.9568C122.424 55.534 117.955 61.089 118.456 67.3643C118.956 73.6396 124.236 78.2588 130.248 77.6816Z" fill="#BACAD9"/>
<g opacity="0.45">
<path opacity="0.45" d="M289.589 174.297C293.196 173.938 295.886 170.611 295.599 166.867C295.311 163.123 292.154 160.379 288.547 160.738C284.94 161.097 282.25 164.424 282.538 168.168C282.826 171.912 285.983 174.656 289.589 174.297Z" fill="#0F416D"/>
<path opacity="0.45" fill-rule="evenodd" clip-rule="evenodd" d="M289.636 174.294C286.007 174.655 282.831 171.901 282.541 168.142C282.251 164.384 284.958 161.046 288.587 160.685L289.636 174.294Z" fill="#0F416D"/>
</g>
<path d="M328.694 166.154C329.593 166.068 330.261 165.236 330.186 164.297C330.111 163.357 329.322 162.666 328.423 162.752C327.524 162.839 326.856 163.67 326.931 164.61C327.006 165.549 327.795 166.241 328.694 166.154Z" fill="#CFDAE6"/>
<path opacity="0.35" d="M293.008 208.454C293.907 208.368 294.575 207.536 294.5 206.597C294.425 205.658 293.636 204.966 292.737 205.052C291.838 205.139 291.17 205.97 291.245 206.91C291.32 207.849 292.109 208.541 293.008 208.454Z" fill="#E0B4B7"/>
<path opacity="0.35" d="M287.207 132.108C288.405 131.993 289.296 130.884 289.196 129.632C289.096 128.379 288.044 127.457 286.846 127.572C285.647 127.687 284.756 128.796 284.856 130.049C284.956 131.301 286.008 132.223 287.207 132.108Z" fill="#E0B4B7"/>
<path opacity="0.8" d="M129.255 67.8339L280.721 162.077" stroke="#CFDAE6"/>
<g opacity="0.8">
<path opacity="0.8" d="M1076.48 37.6475C1082.62 36.3481 1086.67 30.0789 1085.52 23.6448C1084.37 17.2108 1078.46 13.0483 1072.31 14.3477C1066.16 15.6471 1062.11 21.9162 1063.26 28.3503C1064.41 34.7844 1070.33 38.9468 1076.48 37.6475Z" stroke="#CFDAE6" stroke-width="0.941176"/>
<g opacity="0.8">
<path opacity="0.45" d="M1075.9 34.7848C1080.58 33.7757 1083.68 29.0263 1082.83 24.1768C1081.98 19.3272 1077.5 16.2139 1072.82 17.223C1068.14 18.2321 1065.04 22.9815 1065.89 27.8311C1066.74 32.6806 1071.22 35.7939 1075.9 34.7848Z" fill="#BACAD9"/>
<path opacity="0.8" fill-rule="evenodd" clip-rule="evenodd" d="M1075.82 34.8994C1080.54 33.8843 1083.68 29.1069 1082.82 24.2286C1081.96 19.3504 1077.44 16.2187 1072.72 17.2338L1075.82 34.8994Z" fill="#BACAD9"/>
</g>
<path opacity="0.8" d="M1063.97 20.1508L1031.55 5.60669" stroke="#CFDAE6" stroke-width="0.941176"/>
<path opacity="0.8" d="M1029.45 7.74612C1031.24 7.36714 1032.43 5.53862 1032.09 3.66202C1031.75 1.78542 1030.03 0.571365 1028.24 0.950351C1026.44 1.32934 1025.26 3.15785 1025.6 5.03445C1025.93 6.91105 1027.66 8.12511 1029.45 7.74612Z" stroke="#CFDAE6" stroke-width="0.941176"/>
<path opacity="0.8" d="M1040.01 67.5325C1041.55 67.2077 1042.56 65.6404 1042.28 64.0319C1041.99 62.4234 1040.51 61.3827 1038.97 61.7076C1037.44 62.0324 1036.42 63.5997 1036.71 65.2083C1037 66.8168 1038.48 67.8574 1040.01 67.5325Z" fill="#0F416D"/>
<path opacity="0.8" d="M1066.89 35.4347L1041.3 62.7154" stroke="#CFDAE6" stroke-width="0.941176"/>
</g>
<g opacity="0.33">
<g opacity="0.33">
<path opacity="0.45" d="M1298.35 447.175C1297.85 440.448 1292.16 435.535 1285.64 436.202C1279.12 436.868 1274.24 442.861 1274.74 449.588C1275.24 456.315 1280.94 461.227 1287.46 460.561C1293.98 459.894 1298.86 453.901 1298.35 447.175Z" fill="#BACAD9"/>
<path opacity="0.33" fill-rule="evenodd" clip-rule="evenodd" d="M1287.36 460.691C1293.93 460.021 1298.85 453.997 1298.35 447.236C1297.84 440.476 1292.1 435.538 1285.53 436.208L1287.36 460.691Z" fill="#BACAD9"/>
</g>
<path opacity="0.33" d="M1344.79 425.177C1348.01 424.56 1350.17 421.356 1349.63 418.02C1349.09 414.685 1346.05 412.481 1342.84 413.099C1339.62 413.716 1337.45 416.92 1337.99 420.256C1338.53 423.591 1341.58 425.795 1344.79 425.177Z" fill="#CFDAE6"/>
<path opacity="0.33" d="M1285.97 431.235L1285.57 354.835" stroke="#BACAD9" stroke-width="1.16667"/>
<path opacity="0.33" d="M1152.45 401.465L1271.92 442.646" stroke="#BACAD9" stroke-width="1.16667"/>
<path opacity="0.33" d="M1292.76 464.159L1342.33 573.324L1192.23 512.487L1273.69 457.721" stroke="#CFDAE6" stroke-width="1.16667"/>
<path opacity="0.6" d="M1304.27 439.635L1337.85 422.143" stroke="#E0B4B7" stroke-width="1.16667"/>
<path opacity="0.33" d="M1346.04 412.901L1371.7 358.812" stroke="#BACAD9" stroke-width="1.16667"/>
<path opacity="0.33" d="M1415.91 453.43L1349.52 421.645" stroke="#CFDAE6" stroke-width="1.16667"/>
<path opacity="0.33" d="M1287.03 354.32C1291.85 353.394 1295.1 348.587 1294.29 343.584C1293.48 338.581 1288.92 335.276 1284.1 336.202C1279.28 337.128 1276.02 341.934 1276.83 346.937C1277.64 351.94 1282.21 355.246 1287.03 354.32Z" fill="#C1D1E0"/>
<path opacity="0.33" d="M1194.17 518.39C1197.07 517.835 1199.02 514.951 1198.53 511.949C1198.04 508.947 1195.31 506.964 1192.41 507.52C1189.52 508.075 1187.57 510.959 1188.06 513.961C1188.54 516.963 1191.28 518.946 1194.17 518.39Z" fill="#C1D1E0"/>
<path opacity="0.33" d="M1144.54 407.124C1149.36 406.198 1152.61 401.391 1151.8 396.388C1150.99 391.385 1146.43 388.079 1141.6 389.005C1136.78 389.931 1133.53 394.738 1134.34 399.741C1135.15 404.744 1139.72 408.05 1144.54 407.124Z" fill="#D1DEED" fill-opacity="0.6"/>
<path opacity="0.33" d="M1376.41 357.827C1379.63 357.209 1381.79 354.005 1381.25 350.67C1380.71 347.334 1377.67 345.131 1374.46 345.748C1371.24 346.365 1369.07 349.57 1369.61 352.905C1370.15 356.241 1373.2 358.444 1376.41 357.827Z" fill="#D1DEED" fill-opacity="0.6"/>
<path opacity="0.33" d="M1344.06 580.9C1346.95 580.345 1348.91 577.461 1348.42 574.459C1347.93 571.457 1345.19 569.474 1342.3 570.029C1339.41 570.585 1337.46 573.469 1337.94 576.471C1338.43 579.473 1341.17 581.456 1344.06 580.9Z" fill="#E0B4B7"/>
</g>
</svg>
