<svg width="661" height="256" viewBox="0 0 661 256" fill="none" xmlns="http://www.w3.org/2000/svg">
<path d="M264.625 65.2584V160.479H241.231V65.2584C241.231 58.281 244.104 52.9454 249.85 48.8411C253.954 46.3785 258.059 44.7368 262.984 44.7368H294.587C308.542 44.7368 320.034 48.8411 328.243 57.4602C335.63 64.848 338.914 73.467 338.914 84.1383V88.653C338.914 101.787 333.578 112.048 323.317 119.435C319.213 122.309 315.109 124.361 310.183 125.592L341.376 160.479H312.236L283.505 127.644H265.446L277.759 107.533H293.766C303.206 107.533 309.773 104.249 313.056 97.6826C314.288 94.8095 315.109 91.9365 315.109 88.2426V83.7278C315.109 74.6983 311.004 68.5418 302.796 66.0793C299.923 65.2584 297.05 64.848 293.766 64.848L264.625 65.2584Z" fill="white"/>
<path d="M359.436 45.1476H382.83V160.479H359.436V45.1476Z" fill="white"/>
<path d="M428.388 113.279V160.479H404.993V65.2584C404.993 58.281 407.867 52.9454 413.613 48.8411C417.717 46.3785 421.821 44.7368 426.746 44.7368H498.572L487.49 64.848H427.978V93.1678H482.976V113.279H428.388Z" fill="white"/>
<path d="M562.6 95.2203L594.613 45.1476H619.65L585.584 99.7351C581.479 105.892 577.786 110.406 574.502 112.869V160.479H551.107V113.279C547.003 110.406 543.309 105.892 539.205 99.7351L505.549 45.1476H530.586L562.6 95.2203Z" fill="white"/>
<path d="M631.142 45.1476H654.536V160.479H631.142V45.1476Z" fill="white"/>
<path d="M156.271 114.511V141.189H214.553L225.224 160.89H155.04C147.652 160.89 141.906 158.017 137.802 152.681C134.929 148.987 133.698 145.293 133.698 140.778V67.3109C133.698 60.744 136.571 55.4084 142.317 51.3041C146.011 48.431 150.525 47.1997 155.451 47.1997H225.635L214.963 66.9005H156.271V94.3995H210.038V114.1L156.271 114.511Z" fill="white"/>
<path d="M131.646 0L55.7155 137.495L24.5226 58.6919L6.46359 59.1023L35.6043 139.137C41.3504 153.912 50.3799 160.89 62.6929 161.3C75.0058 161.3 84.0353 153.912 89.7814 139.137L140.265 0H131.646Z" fill="white"/>
<path d="M61.4616 112.048L40.1191 58.692H33.1417L57.3572 119.026L61.4616 112.048Z" fill="white"/>
<path d="M69.2598 98.0936L53.6633 58.692H47.5068L65.9763 104.25L69.2598 98.0936Z" fill="white"/>
<path d="M36.108 239.3L29.708 228.18H26.228V239.3H21.668V211.5H31.268C33.4013 211.5 35.2013 211.873 36.668 212.62C38.1613 213.367 39.268 214.367 39.988 215.62C40.7346 216.873 41.108 218.273 41.108 219.82C41.108 221.633 40.5746 223.287 39.508 224.78C38.468 226.247 36.8546 227.247 34.668 227.78L41.548 239.3H36.108ZM26.228 224.54H31.268C32.9746 224.54 34.2546 224.113 35.108 223.26C35.988 222.407 36.428 221.26 36.428 219.82C36.428 218.38 36.0013 217.26 35.148 216.46C34.2946 215.633 33.0013 215.22 31.268 215.22H26.228V224.54ZM69.3014 211.5V215.22H57.5014V223.42H66.7014V227.14H57.5014V239.3H52.9414V211.5H69.3014ZM84.0873 211.5V239.3H79.5273V211.5H84.0873ZM105.154 211.5C108.114 211.5 110.701 212.073 112.914 213.22C115.154 214.34 116.874 215.967 118.074 218.1C119.301 220.207 119.914 222.673 119.914 225.5C119.914 228.327 119.301 230.78 118.074 232.86C116.874 234.94 115.154 236.54 112.914 237.66C110.701 238.753 108.114 239.3 105.154 239.3H96.0742V211.5H105.154ZM105.154 235.58C108.408 235.58 110.901 234.7 112.634 232.94C114.368 231.18 115.234 228.7 115.234 225.5C115.234 222.273 114.368 219.753 112.634 217.94C110.901 216.127 108.408 215.22 105.154 215.22H100.634V235.58H105.154ZM170.784 211.5L160.344 239.3H155.064L144.584 211.5H149.464L157.704 234.62L165.984 211.5H170.784ZM200.798 227.74C200.798 228.567 200.744 229.313 200.638 229.98H183.798C183.931 231.74 184.584 233.153 185.758 234.22C186.931 235.287 188.371 235.82 190.078 235.82C192.531 235.82 194.264 234.793 195.278 232.74H200.198C199.531 234.767 198.318 236.433 196.558 237.74C194.824 239.02 192.664 239.66 190.078 239.66C187.971 239.66 186.078 239.193 184.398 238.26C182.744 237.3 181.438 235.967 180.478 234.26C179.544 232.527 179.078 230.527 179.078 228.26C179.078 225.993 179.531 224.007 180.438 222.3C181.371 220.567 182.664 219.233 184.318 218.3C185.998 217.367 187.918 216.9 190.078 216.9C192.158 216.9 194.011 217.353 195.638 218.26C197.264 219.167 198.531 220.447 199.438 222.1C200.344 223.727 200.798 225.607 200.798 227.74ZM196.038 226.3C196.011 224.62 195.411 223.273 194.238 222.26C193.064 221.247 191.611 220.74 189.878 220.74C188.304 220.74 186.958 221.247 185.838 222.26C184.718 223.247 184.051 224.593 183.838 226.3H196.038ZM215.845 220.46C216.512 219.34 217.392 218.473 218.485 217.86C219.605 217.22 220.925 216.9 222.445 216.9V221.62H221.285C219.498 221.62 218.138 222.073 217.205 222.98C216.298 223.887 215.845 225.46 215.845 227.7V239.3H211.285V217.26H215.845V220.46ZM234.957 214.34C234.13 214.34 233.437 214.06 232.877 213.5C232.317 212.94 232.037 212.247 232.037 211.42C232.037 210.593 232.317 209.9 232.877 209.34C233.437 208.78 234.13 208.5 234.957 208.5C235.757 208.5 236.437 208.78 236.997 209.34C237.557 209.9 237.837 210.593 237.837 211.42C237.837 212.247 237.557 212.94 236.997 213.5C236.437 214.06 235.757 214.34 234.957 214.34ZM237.197 217.26V239.3H232.637V217.26H237.197ZM258.424 220.98H254.344V239.3H249.744V220.98H247.144V217.26H249.744V215.7C249.744 213.167 250.41 211.327 251.744 210.18C253.104 209.007 255.224 208.42 258.104 208.42V212.22C256.717 212.22 255.744 212.487 255.184 213.02C254.624 213.527 254.344 214.42 254.344 215.7V217.26H258.424V220.98ZM270.785 214.34C269.958 214.34 269.265 214.06 268.705 213.5C268.145 212.94 267.865 212.247 267.865 211.42C267.865 210.593 268.145 209.9 268.705 209.34C269.265 208.78 269.958 208.5 270.785 208.5C271.585 208.5 272.265 208.78 272.825 209.34C273.385 209.9 273.665 210.593 273.665 211.42C273.665 212.247 273.385 212.94 272.825 213.5C272.265 214.06 271.585 214.34 270.785 214.34ZM273.025 217.26V239.3H268.465V217.26H273.025ZM283.492 228.26C283.492 225.993 283.945 224.007 284.852 222.3C285.785 220.567 287.065 219.233 288.692 218.3C290.318 217.367 292.185 216.9 294.292 216.9C296.958 216.9 299.158 217.54 300.892 218.82C302.652 220.073 303.838 221.873 304.452 224.22H299.532C299.132 223.127 298.492 222.273 297.612 221.66C296.732 221.047 295.625 220.74 294.292 220.74C292.425 220.74 290.932 221.407 289.812 222.74C288.718 224.047 288.172 225.887 288.172 228.26C288.172 230.633 288.718 232.487 289.812 233.82C290.932 235.153 292.425 235.82 294.292 235.82C296.932 235.82 298.678 234.66 299.532 232.34H304.452C303.812 234.58 302.612 236.367 300.852 237.7C299.092 239.007 296.905 239.66 294.292 239.66C292.185 239.66 290.318 239.193 288.692 238.26C287.065 237.3 285.785 235.967 284.852 234.26C283.945 232.527 283.492 230.527 283.492 228.26ZM313.476 228.18C313.476 225.967 313.929 224.007 314.836 222.3C315.769 220.593 317.023 219.273 318.596 218.34C320.196 217.38 321.956 216.9 323.876 216.9C325.609 216.9 327.116 217.247 328.396 217.94C329.703 218.607 330.743 219.447 331.516 220.46V217.26H336.116V239.3H331.516V236.02C330.743 237.06 329.689 237.927 328.356 238.62C327.023 239.313 325.503 239.66 323.796 239.66C321.903 239.66 320.169 239.18 318.596 238.22C317.023 237.233 315.769 235.873 314.836 234.14C313.929 232.38 313.476 230.393 313.476 228.18ZM331.516 228.26C331.516 226.74 331.196 225.42 330.556 224.3C329.943 223.18 329.129 222.327 328.116 221.74C327.103 221.153 326.009 220.86 324.836 220.86C323.663 220.86 322.569 221.153 321.556 221.74C320.543 222.3 319.716 223.14 319.076 224.26C318.463 225.353 318.156 226.66 318.156 228.18C318.156 229.7 318.463 231.033 319.076 232.18C319.716 233.327 320.543 234.207 321.556 234.82C322.596 235.407 323.689 235.7 324.836 235.7C326.009 235.7 327.103 235.407 328.116 234.82C329.129 234.233 329.943 233.38 330.556 232.26C331.196 231.113 331.516 229.78 331.516 228.26ZM353.425 220.98V233.18C353.425 234.007 353.612 234.607 353.985 234.98C354.385 235.327 355.052 235.5 355.985 235.5H358.785V239.3H355.185C353.132 239.3 351.559 238.82 350.465 237.86C349.372 236.9 348.825 235.34 348.825 233.18V220.98H346.225V217.26H348.825V211.78H353.425V217.26H358.785V220.98H353.425ZM371.308 214.34C370.482 214.34 369.788 214.06 369.228 213.5C368.668 212.94 368.388 212.247 368.388 211.42C368.388 210.593 368.668 209.9 369.228 209.34C369.788 208.78 370.482 208.5 371.308 208.5C372.108 208.5 372.788 208.78 373.348 209.34C373.908 209.9 374.188 210.593 374.188 211.42C374.188 212.247 373.908 212.94 373.348 213.5C372.788 214.06 372.108 214.34 371.308 214.34ZM373.548 217.26V239.3H368.988V217.26H373.548ZM395.095 239.66C393.015 239.66 391.135 239.193 389.455 238.26C387.775 237.3 386.455 235.967 385.495 234.26C384.535 232.527 384.055 230.527 384.055 228.26C384.055 226.02 384.548 224.033 385.535 222.3C386.522 220.567 387.868 219.233 389.575 218.3C391.282 217.367 393.188 216.9 395.295 216.9C397.402 216.9 399.308 217.367 401.015 218.3C402.722 219.233 404.068 220.567 405.055 222.3C406.042 224.033 406.535 226.02 406.535 228.26C406.535 230.5 406.028 232.487 405.015 234.22C404.002 235.953 402.615 237.3 400.855 238.26C399.122 239.193 397.202 239.66 395.095 239.66ZM395.095 235.7C396.268 235.7 397.362 235.42 398.375 234.86C399.415 234.3 400.255 233.46 400.895 232.34C401.535 231.22 401.855 229.86 401.855 228.26C401.855 226.66 401.548 225.313 400.935 224.22C400.322 223.1 399.508 222.26 398.495 221.7C397.482 221.14 396.388 220.86 395.215 220.86C394.042 220.86 392.948 221.14 391.935 221.7C390.948 222.26 390.162 223.1 389.575 224.22C388.988 225.313 388.695 226.66 388.695 228.26C388.695 230.633 389.295 232.473 390.495 233.78C391.722 235.06 393.255 235.7 395.095 235.7ZM428.163 216.9C429.896 216.9 431.443 217.26 432.803 217.98C434.19 218.7 435.27 219.767 436.043 221.18C436.816 222.593 437.203 224.3 437.203 226.3V239.3H432.683V226.98C432.683 225.007 432.19 223.5 431.203 222.46C430.216 221.393 428.87 220.86 427.163 220.86C425.456 220.86 424.096 221.393 423.083 222.46C422.096 223.5 421.603 225.007 421.603 226.98V239.3H417.043V217.26H421.603V219.78C422.35 218.873 423.296 218.167 424.443 217.66C425.616 217.153 426.856 216.9 428.163 216.9ZM474.57 239.58C472.703 239.58 471.023 239.26 469.53 238.62C468.037 237.953 466.863 237.02 466.01 235.82C465.157 234.62 464.73 233.22 464.73 231.62H469.61C469.717 232.82 470.183 233.807 471.01 234.58C471.863 235.353 473.05 235.74 474.57 235.74C476.143 235.74 477.37 235.367 478.25 234.62C479.13 233.847 479.57 232.86 479.57 231.66C479.57 230.727 479.29 229.967 478.73 229.38C478.197 228.793 477.517 228.34 476.69 228.02C475.89 227.7 474.77 227.353 473.33 226.98C471.517 226.5 470.037 226.02 468.89 225.54C467.77 225.033 466.81 224.26 466.01 223.22C465.21 222.18 464.81 220.793 464.81 219.06C464.81 217.46 465.21 216.06 466.01 214.86C466.81 213.66 467.93 212.74 469.37 212.1C470.81 211.46 472.477 211.14 474.37 211.14C477.063 211.14 479.263 211.82 480.97 213.18C482.703 214.513 483.663 216.353 483.85 218.7H478.81C478.73 217.687 478.25 216.82 477.37 216.1C476.49 215.38 475.33 215.02 473.89 215.02C472.583 215.02 471.517 215.353 470.69 216.02C469.863 216.687 469.45 217.647 469.45 218.9C469.45 219.753 469.703 220.46 470.21 221.02C470.743 221.553 471.41 221.98 472.21 222.3C473.01 222.62 474.103 222.967 475.49 223.34C477.33 223.847 478.823 224.353 479.97 224.86C481.143 225.367 482.13 226.153 482.93 227.22C483.757 228.26 484.17 229.66 484.17 231.42C484.17 232.833 483.783 234.167 483.01 235.42C482.263 236.673 481.157 237.687 479.69 238.46C478.25 239.207 476.543 239.58 474.57 239.58ZM515.391 217.26L501.871 249.66H497.151L501.631 238.94L492.951 217.26H498.031L504.231 234.06L510.671 217.26H515.391ZM532.832 239.66C531.099 239.66 529.539 239.353 528.152 238.74C526.792 238.1 525.712 237.247 524.912 236.18C524.112 235.087 523.685 233.873 523.632 232.54H528.352C528.432 233.473 528.872 234.26 529.672 234.9C530.499 235.513 531.525 235.82 532.752 235.82C534.032 235.82 535.019 235.58 535.712 235.1C536.432 234.593 536.792 233.953 536.792 233.18C536.792 232.353 536.392 231.74 535.592 231.34C534.819 230.94 533.579 230.5 531.872 230.02C530.219 229.567 528.872 229.127 527.832 228.7C526.792 228.273 525.885 227.62 525.112 226.74C524.365 225.86 523.992 224.7 523.992 223.26C523.992 222.087 524.339 221.02 525.032 220.06C525.725 219.073 526.712 218.3 527.992 217.74C529.299 217.18 530.792 216.9 532.472 216.9C534.979 216.9 536.992 217.54 538.512 218.82C540.059 220.073 540.885 221.793 540.992 223.98H536.432C536.352 222.993 535.952 222.207 535.232 221.62C534.512 221.033 533.539 220.74 532.312 220.74C531.112 220.74 530.192 220.967 529.552 221.42C528.912 221.873 528.592 222.473 528.592 223.22C528.592 223.807 528.805 224.3 529.232 224.7C529.659 225.1 530.179 225.42 530.792 225.66C531.405 225.873 532.312 226.153 533.512 226.5C535.112 226.927 536.419 227.367 537.432 227.82C538.472 228.247 539.365 228.887 540.112 229.74C540.859 230.593 541.245 231.727 541.272 233.14C541.272 234.393 540.925 235.513 540.232 236.5C539.539 237.487 538.552 238.26 537.272 238.82C536.019 239.38 534.539 239.66 532.832 239.66ZM557.519 220.98V233.18C557.519 234.007 557.706 234.607 558.079 234.98C558.479 235.327 559.146 235.5 560.079 235.5H562.879V239.3H559.279C557.226 239.3 555.653 238.82 554.559 237.86C553.466 236.9 552.919 235.34 552.919 233.18V220.98H550.319V217.26H552.919V211.78H557.519V217.26H562.879V220.98H557.519ZM593.282 227.74C593.282 228.567 593.229 229.313 593.122 229.98H576.282C576.415 231.74 577.069 233.153 578.242 234.22C579.415 235.287 580.855 235.82 582.562 235.82C585.015 235.82 586.749 234.793 587.762 232.74H592.682C592.015 234.767 590.802 236.433 589.042 237.74C587.309 239.02 585.149 239.66 582.562 239.66C580.455 239.66 578.562 239.193 576.882 238.26C575.229 237.3 573.922 235.967 572.962 234.26C572.029 232.527 571.562 230.527 571.562 228.26C571.562 225.993 572.015 224.007 572.922 222.3C573.855 220.567 575.149 219.233 576.802 218.3C578.482 217.367 580.402 216.9 582.562 216.9C584.642 216.9 586.495 217.353 588.122 218.26C589.749 219.167 591.015 220.447 591.922 222.1C592.829 223.727 593.282 225.607 593.282 227.74ZM588.522 226.3C588.495 224.62 587.895 223.273 586.722 222.26C585.549 221.247 584.095 220.74 582.362 220.74C580.789 220.74 579.442 221.247 578.322 222.26C577.202 223.247 576.535 224.593 576.322 226.3H588.522ZM630.45 216.9C632.183 216.9 633.73 217.26 635.09 217.98C636.476 218.7 637.556 219.767 638.33 221.18C639.13 222.593 639.53 224.3 639.53 226.3V239.3H635.01V226.98C635.01 225.007 634.516 223.5 633.53 222.46C632.543 221.393 631.196 220.86 629.49 220.86C627.783 220.86 626.423 221.393 625.41 222.46C624.423 223.5 623.93 225.007 623.93 226.98V239.3H619.41V226.98C619.41 225.007 618.916 223.5 617.93 222.46C616.943 221.393 615.596 220.86 613.89 220.86C612.183 220.86 610.823 221.393 609.81 222.46C608.823 223.5 608.33 225.007 608.33 226.98V239.3H603.77V217.26H608.33V219.78C609.076 218.873 610.023 218.167 611.17 217.66C612.316 217.153 613.543 216.9 614.85 216.9C616.61 216.9 618.183 217.273 619.57 218.02C620.956 218.767 622.023 219.847 622.77 221.26C623.436 219.927 624.476 218.873 625.89 218.1C627.303 217.3 628.823 216.9 630.45 216.9Z" fill="white"/>
</svg>
